<svg width="1076" height="957" viewBox="0 0 1076 957" fill="none" xmlns="http://www.w3.org/2000/svg">
<g id="undraw_to_the_moon_re_q21i 1">
<g id="shose">
<path id="Vector" d="M618.54 831.224L560.327 831.221V830.485C560.328 824.472 562.715 818.706 566.964 814.455C571.213 810.203 576.976 807.814 582.985 807.814H582.987L593.62 799.742L613.46 807.815L618.541 807.815L618.54 831.224Z" fill="#F2F2F2"/>
<path id="Vector_2" d="M591.441 799.765L541.705 830.032L541.323 829.403C538.2 824.266 537.245 818.098 538.667 812.256C540.089 806.414 543.772 801.377 548.906 798.252L548.907 798.251L553.8 785.826L574.943 782.407L579.284 779.765L591.441 799.765Z" fill="#F2F2F2"/>
</g>
<g id="head">
<path id="Vector_3" d="M559.54 208.327C593.84 208.327 621.647 180.504 621.647 146.184C621.647 111.863 593.84 84.041 559.54 84.041C525.239 84.041 497.433 111.863 497.433 146.184C497.433 180.504 525.239 208.327 559.54 208.327Z" fill="#F2F2F2"/>
<path id="Vector_4" d="M550.224 212.987C584.524 212.987 612.331 185.165 612.331 150.845C612.331 116.524 584.524 88.7017 550.224 88.7017C515.923 88.7017 488.117 116.524 488.117 150.845C488.117 185.165 515.923 212.987 550.224 212.987Z" fill="#F2F2F2"/>
<path id="Vector_5" d="M549.82 189.56C569.591 189.56 585.618 173.523 585.618 153.741C585.618 133.959 569.591 117.923 549.82 117.923C530.049 117.923 514.022 133.959 514.022 153.741C514.022 173.523 530.049 189.56 549.82 189.56Z" fill="#A0616A"/>
<path id="Vector_6" d="M577.717 184.589L563.525 187.308C563.525 187.308 576.723 165.993 575.947 156.237C575.17 146.48 564.55 142.985 564.55 142.985C564.55 142.985 558.665 144.259 552.47 144.973C551.728 142.883 550.765 140.878 549.598 138.992C549.368 141.427 548.291 143.703 546.555 145.424C544.284 145.619 541.998 145.355 539.831 144.647C537.378 143.529 537.425 141.587 538.232 139.769C530.236 140.429 522.433 142.573 515.222 146.092C514.865 141.322 515.047 136.528 515.765 131.799C516.107 131.706 516.448 131.597 516.79 131.488C518.906 130.819 520.946 129.928 522.876 128.832C520.728 128.547 518.721 127.602 517.131 126.129C518.436 122.307 520.516 118.998 523.792 117.382C526.953 115.835 530.409 114.986 533.927 114.892C537.444 114.799 540.94 115.462 544.179 116.838C544.179 116.838 536.587 111.292 539.381 109.024C539.568 109.21 539.754 109.381 539.956 109.552C540.22 109.769 540.515 110.003 540.794 110.22C542.518 111.618 545.095 109.645 545.437 107.532C545.473 107.266 545.525 107.001 545.592 106.74C545.638 106.523 545.701 106.305 545.763 106.103C545.815 105.924 545.878 105.747 545.949 105.575C551.119 104.332 566.755 109.381 572.764 120.505C572.764 120.505 614.763 140.701 577.717 184.589Z" fill="#3F3D56"/>
<path id="Vector_7" opacity="0.3" d="M550.224 197.452C575.949 197.452 596.804 176.585 596.804 150.845C596.804 125.104 575.949 104.237 550.224 104.237C524.498 104.237 503.644 125.104 503.644 150.845C503.644 176.585 524.498 197.452 550.224 197.452Z" fill="#F50057"/>
</g>
<g id="lowerBody">
<path id="Vector_8" d="M625.637 634.735C625.373 636.6 624.985 642.938 624.535 652.166C622.345 696.909 618.541 809.559 618.541 809.559L594.832 802.179C594.832 802.179 566.636 717.075 571.294 670.468L567.94 654.248L562.195 626.533V626.517L544.696 542.111C544.696 542.111 540.861 564.98 540.551 570.34C540.24 575.7 537.135 577.253 535.582 577.253C527.803 577.253 530.194 575.871 531.328 583.561C532.151 589.092 525.412 620.8 521.562 638.138C520.071 644.88 519.015 649.448 519.015 649.448L525.599 663.647L580.175 781.408L559.54 792.47L477.217 670.39L469.097 658.35L467.358 644.849L453.663 538.632C453.663 538.632 449.393 526.622 453.663 526.312C457.949 525.985 460.371 527.337 459.16 522.785C457.949 518.218 482.791 442.093 482.791 442.093L611.663 470.057C611.663 470.057 624.364 495.318 619.426 507.343C614.473 519.367 623.479 612.488 618.339 616.621C613.216 620.753 609.908 617.444 616.989 624.544C618.072 625.675 619.35 626.601 620.762 627.278C625.14 629.267 626.879 626.035 625.637 634.735Z" fill="#F2F2F2"/>
<path id="Vector_9" d="M625.637 634.735C625.373 636.6 624.985 642.938 624.535 652.166C605.828 655.199 586.818 655.899 567.94 654.248L562.195 626.532C581.537 630.066 601.336 630.318 620.762 627.278C625.14 629.267 626.879 626.035 625.637 634.735Z" fill="#3F3D56"/>
<path id="Vector_10" d="M525.599 663.647C509.679 667.192 493.499 669.447 477.217 670.39L469.097 658.35L467.358 644.849C485.659 645.321 503.928 643.059 521.562 638.138C520.071 644.88 519.015 649.448 519.015 649.448L525.599 663.647Z" fill="#3F3D56"/>
</g>
<g id="upperBody">
<path id="Vector_11" d="M564.749 503.942C564.231 500.364 565.129 496.725 567.252 493.799C569.375 490.873 572.555 488.892 576.116 488.276C576.841 488.163 577.575 488.109 578.31 488.117L615.74 401.145L641.417 420.434L591.424 502.826C591.157 505.871 589.89 508.742 587.821 510.991C585.752 513.241 582.997 514.741 579.987 515.259C578.27 515.537 576.516 515.474 574.825 515.074C573.133 514.674 571.536 513.944 570.126 512.927C568.716 511.909 567.521 510.624 566.607 509.144C565.693 507.664 565.08 506.019 564.802 504.302C564.783 504.182 564.765 504.062 564.749 503.942Z" fill="#F50057"/>
<path id="Vector_12" d="M459.896 511.031C462.415 508.439 463.823 504.965 463.821 501.35C463.82 497.735 462.408 494.263 459.887 491.673C459.366 491.154 458.804 490.68 458.205 490.254L478.94 397.862L446.836 398.392L438.958 494.457C437.387 497.079 436.727 500.147 437.082 503.183C437.438 506.219 438.787 509.052 440.92 511.24C442.146 512.474 443.603 513.453 445.207 514.123C446.812 514.793 448.532 515.14 450.271 515.145C452.009 515.15 453.731 514.812 455.339 514.151C456.947 513.489 458.409 512.518 459.642 511.291C459.728 511.206 459.812 511.119 459.896 511.031Z" fill="#F50057"/>
<path id="Vector_13" d="M666.783 356.366C662.125 362.581 655.914 355.574 662.125 364.523C666.395 370.675 641.925 428.343 626.258 463.672C619.178 479.658 613.883 491.077 613.883 491.077L587.472 475.774L584.383 473.987C584.383 473.987 608.604 412.994 616.399 391.073C617.687 387.438 618.541 384.874 618.743 383.849C620.203 376.563 620.389 370.318 618.743 368.003C618.354 367.14 618.022 366.252 617.749 365.346C614.629 356.196 605.126 325.295 596.229 296.072C593.637 287.497 591.075 279.076 588.746 271.386C582.768 251.64 578.281 236.741 578.281 236.741L613.992 238.295C613.992 238.295 614.582 239.289 615.622 241.091C618.107 245.379 623.199 254.219 629.099 264.846C633.354 272.489 638.043 281.08 642.468 289.532C653.74 311.033 663.445 331.742 660.572 334.616C654.362 340.831 648.011 337.304 655.837 345.274C663.677 353.259 671.441 350.152 666.783 356.366Z" fill="#F2F2F2"/>
<path id="Vector_14" d="M624.079 438.987C614.763 429.759 616.487 387.703 616.487 387.703C616.487 387.703 625.756 246.484 613.211 237.022C604.536 230.758 595.306 225.303 585.635 220.726C585.076 220.477 584.781 220.337 584.781 220.337L576.77 197.733L527.41 195.169L518.793 211.917C518.793 211.917 517.442 212.01 515.33 212.305C507.443 213.393 488.904 217.246 490.55 229.255C492.63 244.48 477.942 337.989 473.47 342.665C468.999 347.342 470.179 364.431 481.234 375.29C492.289 386.15 484.339 415.683 476.576 428.112C471.917 435.719 469.766 444.599 470.427 453.497C470.427 453.497 476.576 487.148 492.102 476.273C498.018 472.124 506.418 471.596 516.526 472.358C516.624 472.365 516.731 472.378 516.83 472.385L516.526 473.911C530.562 474.952 547.905 478.479 566.46 478.277L565.91 476.716C566.095 476.715 566.275 476.725 566.46 476.723C569.596 476.692 572.748 476.552 575.947 476.273C603.615 473.865 615.835 481.477 619.421 473.165C623.008 464.854 633.395 448.215 624.079 438.987Z" fill="#F2F2F2"/>
<path id="Vector_15" d="M527.819 221.206C527.819 221.206 520.739 244.727 512.494 271.868C509.901 280.412 507.184 289.314 504.544 297.968C495.927 326.103 488.071 351.457 487.341 352.467C485.695 354.782 485.897 361.027 487.341 368.313C487.636 369.774 486.968 375.46 485.71 383.616C484.065 394.32 481.41 409.266 478.584 424.522C476.332 436.717 473.972 449.099 471.938 459.648C468.755 476.023 466.38 487.97 466.38 487.97H436.879C436.879 487.97 442.422 364.134 448.633 355.201C454.843 346.253 448.633 353.259 443.975 347.045C439.317 340.831 447.08 343.938 454.905 335.953C462.731 327.983 456.396 331.509 450.185 325.295C447.887 322.996 453.027 308.346 460.418 290.806C463.864 282.665 467.793 273.888 471.674 265.436C479.702 247.99 487.574 231.941 490.695 225.603C490.695 225.587 490.71 225.572 490.71 225.556L492.107 222.76L527.819 221.206Z" fill="#F2F2F2"/>
<path id="Vector_16" d="M616.989 405.63C566.888 418.229 521.843 420.401 485.012 405.63V377.666C528.389 394.517 572.398 394.056 616.989 377.666V405.63Z" fill="#3F3D56"/>
<path id="Vector_17" d="M530.039 286.005C530.039 290.126 528.403 294.077 525.491 296.991C522.58 299.904 518.63 301.541 514.512 301.541C510.395 301.541 506.445 299.904 503.533 296.991C500.622 294.077 498.986 290.126 498.986 286.005C498.986 277.425 512.96 259.595 514.512 270.47C516.065 281.345 530.039 277.425 530.039 286.005Z" fill="#F50057"/>
<path id="Vector_18" d="M516.201 259.664C515.642 259.617 515.083 259.602 514.508 259.602C507.749 259.61 501.25 262.209 496.346 266.864C491.443 271.519 488.507 277.876 488.144 284.63C488.128 285.08 488.113 285.546 488.113 286.013C488.113 286.649 488.128 287.271 488.19 287.892C488.581 293.423 490.702 298.689 494.253 302.945C497.804 307.201 502.604 310.23 507.973 311.602C513.341 312.974 519.005 312.62 524.161 310.589C529.317 308.559 533.702 304.955 536.696 300.29C537.297 299.369 537.837 298.409 538.311 297.416C540.177 293.52 541.06 289.226 540.881 284.91C540.702 280.593 539.467 276.387 537.284 272.66C535.101 268.933 532.037 265.799 528.361 263.533C524.685 261.267 520.509 259.938 516.201 259.664V259.664ZM534.429 299.839C531.994 302.77 528.951 305.135 525.511 306.771C522.071 308.408 518.317 309.276 514.508 309.316C508.837 309.308 503.363 307.232 499.111 303.478C494.858 299.723 492.119 294.547 491.404 288.918C491.279 287.954 491.217 286.984 491.218 286.013C491.215 285.878 491.221 285.743 491.234 285.609C491.34 279.501 493.839 273.68 498.191 269.397C502.544 265.115 508.403 262.713 514.508 262.709C514.648 263.082 514.788 263.439 514.943 263.781C521.573 279.472 535.95 278.291 537.798 286.013C538.692 289.745 538.149 293.677 536.277 297.027C535.75 298.021 535.132 298.962 534.429 299.839V299.839Z" fill="#F50057"/>
</g>
</g>
</svg>
