<svg width="1440" height="1024" viewBox="0 0 1440 1024" fill="none" xmlns="http://www.w3.org/2000/svg">
<g id="Desktop - 1" clip-path="url(#clip0_1_181)">
<rect width="1440" height="1024" fill="#3F3D56"/>
<g id="objects">
<path id="obj10" d="M529.857 691.137C533.524 691.137 536.496 688.009 536.496 684.151C536.496 680.293 533.524 677.165 529.857 677.165C526.19 677.165 523.217 680.293 523.217 684.151C523.217 688.009 526.19 691.137 529.857 691.137Z" fill="#F50057"/>
<path id="obj9" d="M384.239 811C387.906 811 390.878 807.872 390.878 804.014C390.878 800.156 387.906 797.028 384.239 797.028C380.572 797.028 377.599 800.156 377.599 804.014C377.599 807.872 380.572 811 384.239 811Z" fill="#F50057"/>
<path id="obj8" d="M1416.05 690.41C1419.72 690.41 1422.69 687.282 1422.69 683.424C1422.69 679.566 1419.72 676.438 1416.05 676.438C1412.38 676.438 1409.41 679.566 1409.41 683.424C1409.41 687.282 1412.38 690.41 1416.05 690.41Z" fill="#F50057"/>
<path id="obj7" d="M1124.97 519.955C1128.63 519.955 1131.61 516.828 1131.61 512.969C1131.61 509.111 1128.63 505.983 1124.97 505.983C1121.3 505.983 1118.33 509.111 1118.33 512.969C1118.33 516.828 1121.3 519.955 1124.97 519.955Z" fill="#F50057"/>
<path id="obj6" d="M697.429 198.445C690.259 203.471 682.921 191.508 690.228 186.705C697.398 181.679 704.736 193.642 697.429 198.445Z" fill="#E6E6E6"/>
<path id="obj3" d="M185.816 345.333C189.483 345.333 192.456 342.206 192.456 338.347C192.456 334.489 189.483 331.361 185.816 331.361C182.149 331.361 179.177 334.489 179.177 338.347C179.177 342.206 182.149 345.333 185.816 345.333Z" fill="#F50057"/>
<path id="obj2" d="M46.3622 641.061C50.0292 641.061 53.0018 637.933 53.0018 634.075C53.0018 630.217 50.0292 627.089 46.3622 627.089C42.6952 627.089 39.7226 630.217 39.7226 634.075C39.7226 637.933 42.6952 641.061 46.3622 641.061Z" fill="#F50057"/>
</g>
<g id="stars">
<path id="star23" d="M587.402 785.49L584.088 788.953L580.796 785.466L578.587 787.775L581.879 791.262L578.565 794.725L580.759 797.049L584.073 793.586L587.364 797.073L589.574 794.764L586.282 791.277L589.596 787.814L587.402 785.49Z" fill="#E6E6E6"/>
<path id="star19" d="M282.097 718.364L277.536 717.311L278.534 712.51L275.493 711.809L274.493 716.61L269.931 715.559L269.265 718.758L273.826 719.811L272.828 724.611L275.868 725.312L276.869 720.511L281.43 721.563L282.097 718.364Z" fill="#E6E6E6"/>
<path id="star18" d="M1168.29 717.637L1163.73 716.585L1164.73 711.783L1161.69 711.082L1160.69 715.883L1156.12 714.832L1155.46 718.032L1160.02 719.085L1159.02 723.884L1162.06 724.585L1163.06 719.784L1167.62 720.837L1168.29 717.637Z" fill="#E6E6E6"/>
<path id="star17" d="M980.127 142.135L975.566 141.082L976.565 136.281L973.524 135.579L972.523 140.381L967.962 139.33L967.295 142.529L971.857 143.582L970.858 148.381L973.899 149.083L974.9 144.281L979.461 145.334L980.127 142.135Z" fill="#E6E6E6"/>
<path id="star16" d="M577.934 82.8084L573.372 81.7556L574.371 76.9543L571.33 76.2531L570.33 81.0543L565.768 80.0035L565.102 83.203L569.663 84.2558L568.664 89.0551L571.705 89.7564L572.706 84.9551L577.267 86.008L577.934 82.8084Z" fill="#E6E6E6"/>
<path id="star15" d="M258.622 110.155L254.061 109.102L255.059 104.301L252.019 103.6L251.018 108.401L246.457 107.35L245.79 110.55L250.351 111.602L249.353 116.402L252.394 117.103L253.394 112.302L257.955 113.354L258.622 110.155Z" fill="#E6E6E6"/>
<path id="star14" d="M89.6838 51.5553L85.1224 50.5025L86.1212 45.7012L83.0803 45L82.0797 49.8013L77.5183 48.7504L76.8519 51.9499L81.4132 53.0027L80.4144 57.8021L83.4553 58.5033L84.4559 53.702L89.0173 54.7549L89.6838 51.5553Z" fill="#E6E6E6"/>
<path id="star13" d="M1336.57 452.712L1332.01 451.66L1333.01 446.858L1329.96 446.157L1328.96 450.958L1324.4 449.907L1323.74 453.107L1328.3 454.16L1327.3 458.959L1330.34 459.66L1331.34 454.859L1335.9 455.912L1336.57 452.712Z" fill="#E6E6E6"/>
<path id="star12" d="M615.063 420.733L610.502 419.68L611.5 414.879L608.46 414.177L607.459 418.979L602.898 417.928L602.231 421.127L606.792 422.18L605.794 426.979L608.835 427.681L609.835 422.879L614.397 423.932L615.063 420.733Z" fill="#E6E6E6"/>
<path id="star11" d="M403.426 498.865L398.865 497.813L399.864 493.011L396.823 492.31L395.822 497.111L391.261 496.061L390.594 499.26L395.156 500.313L394.157 505.112L397.198 505.813L398.198 501.012L402.76 502.065L403.426 498.865Z" fill="#E6E6E6"/>
<path id="star10" d="M474.989 217.88L470.428 216.828L471.427 212.028L468.386 211.327L467.385 216.126L462.822 215.075L462.155 218.275L466.719 219.328L465.72 224.129L468.761 224.828L469.761 220.029L474.323 221.08L474.989 217.88Z" fill="#E6E6E6"/>
<path id="star9" d="M1287.1 96.4797L1282.54 95.4269L1283.54 90.6276L1280.5 89.9263L1279.5 94.7256L1274.94 93.6747L1274.27 96.8743L1278.83 97.9271L1277.84 102.728L1280.88 103.428L1281.88 98.6284L1286.44 99.6792L1287.1 96.4797Z" fill="#E6E6E6"/>
<path id="star8" d="M1361.18 217.154L1356.62 216.101L1357.62 211.302L1354.58 210.6L1353.58 215.4L1349.01 214.349L1348.35 217.548L1352.91 218.601L1351.91 223.403L1354.95 224.102L1355.95 219.303L1360.51 220.353L1361.18 217.154Z" fill="#E6E6E6"/>
<path id="star7" d="M857.601 476.152L853.039 475.099L854.038 470.298L850.997 469.597L849.997 474.398L845.435 473.347L844.769 476.547L849.33 477.6L848.331 482.399L851.372 483.1L852.373 478.299L856.934 479.352L857.601 476.152Z" fill="#E6E6E6"/>
<path id="star5" d="M830.413 635.598L825.852 634.545L826.85 629.744L823.809 629.042L822.809 633.844L818.247 632.793L817.581 635.992L822.142 637.045L821.143 641.845L824.184 642.546L825.185 637.745L829.746 638.797L830.413 635.598Z" fill="#E6E6E6"/>
<path id="star4" d="M132.382 483.239L127.821 482.186L128.82 477.385L125.779 476.684L124.778 481.485L120.217 480.434L119.551 483.634L124.112 484.686L123.113 489.486L126.154 490.187L127.155 485.386L131.716 486.438L132.382 483.239Z" fill="#E6E6E6"/>
<path id="star3" d="M1033.78 389.773L1029.22 388.72L1030.22 383.92L1027.18 383.219L1026.18 388.019L1021.62 386.968L1020.95 390.167L1025.51 391.22L1024.52 396.021L1027.56 396.721L1028.56 391.921L1033.12 392.972L1033.78 389.773Z" fill="#E6E6E6"/>
<path id="satr2" d="M1201.71 299.625L1197.15 298.572L1198.14 293.773L1195.1 293.072L1194.1 297.871L1189.54 296.82L1188.87 300.019L1193.44 301.072L1192.44 305.874L1195.48 306.573L1196.48 301.774L1201.04 302.824L1201.71 299.625Z" fill="#E6E6E6"/>
<path id="star1" d="M312.279 357.793L307.718 356.74L308.717 351.941L305.676 351.239L304.675 356.039L300.112 354.988L299.446 358.187L304.009 359.24L303.01 364.041L306.051 364.741L307.051 359.941L311.613 360.992L312.279 357.793Z" fill="#E6E6E6"/>
</g>
<g id="movingStars">
<path id="movingStar4" opacity="0.8" d="M941.31 792.12L1005.75 719.467L1070.19 646.813L1106.56 605.799C1108.58 603.53 1105.79 599.731 1103.78 602L1039.34 674.653L974.9 747.307L938.523 788.321C936.51 790.591 939.297 794.39 941.31 792.12Z" fill="url(#paint0_linear_1_181)"/>
<path id="movingStar3" opacity="0.8" d="M100.862 792.099L165.301 719.445L229.74 646.791L266.117 605.777C268.13 603.508 265.343 599.709 263.33 601.978L198.891 674.632L134.452 747.285L98.0748 788.3C96.0621 790.569 98.8494 794.368 100.862 792.099V792.099Z" fill="url(#paint1_linear_1_181)"/>
<path id="movingStar2" opacity="0.8" d="M722.119 425.601L786.558 352.948L850.997 280.294L887.374 239.28C889.386 237.01 886.599 233.211 884.587 235.481L820.147 308.134L755.708 380.788L719.331 421.802C717.319 424.071 720.106 427.87 722.119 425.601Z" fill="url(#paint2_linear_1_181)"/>
<path id="movingStar1" opacity="0.8" d="M21.5992 422.468L86.0383 349.814L150.477 277.161L186.854 236.147C188.867 233.877 186.08 230.078 184.067 232.348L119.628 305.001L55.189 377.655L18.8121 418.669C16.7994 420.938 19.5866 424.737 21.5992 422.468V422.468Z" fill="url(#paint3_linear_1_181)"/>
</g>
</g>
<defs>
<linearGradient id="paint0_linear_1_181" x1="942.041" y1="693.545" x2="1103.05" y2="700.575" gradientUnits="userSpaceOnUse">
<stop stop-color="white"/>
<stop offset="1" stop-color="white" stop-opacity="0.3"/>
</linearGradient>
<linearGradient id="paint1_linear_1_181" x1="101.593" y1="693.524" x2="262.599" y2="700.553" gradientUnits="userSpaceOnUse">
<stop stop-color="white"/>
<stop offset="1" stop-color="white" stop-opacity="0.3"/>
</linearGradient>
<linearGradient id="paint2_linear_1_181" x1="722.85" y1="327.026" x2="883.856" y2="334.056" gradientUnits="userSpaceOnUse">
<stop stop-color="white"/>
<stop offset="1" stop-color="white" stop-opacity="0.3"/>
</linearGradient>
<linearGradient id="paint3_linear_1_181" x1="22.3302" y1="323.893" x2="183.336" y2="330.923" gradientUnits="userSpaceOnUse">
<stop stop-color="white"/>
<stop offset="1" stop-color="white" stop-opacity="0.3"/>
</linearGradient>
<clipPath id="clip0_1_181">
<rect width="1440" height="1024" fill="white"/>
</clipPath>
</defs>
</svg>
