<?xml version="1.0" encoding="utf-8"?>
<!-- Generator: Adobe Illustrator 25.2.0, SVG Export Plug-In . SVG Version: 6.00 Build 0)  -->
<svg version="1.1" id="Layer_1" xmlns="http://www.w3.org/2000/svg" xmlns:xlink="http://www.w3.org/1999/xlink" x="0px" y="0px"
	 viewBox="0 0 800 400" style="enable-background:new 0 0 800 400;" xml:space="preserve">
<style type="text/css">
	.st0{fill:#43BDA4;}
	.st1{display:none;fill:#0F7B6A;}
	.st2{display:none;}
	.st3{display:inline;}
	.st4{display:inline;clip-path:url(#SVGID_2_);fill:none;stroke:#43BDA4;stroke-width:8;stroke-miterlimit:10;}
	.st5{fill:#0F7B6A;}
	.st6{fill:#0A5648;}
	.st7{fill:none;stroke:#43BDA4;stroke-width:5;stroke-miterlimit:10;}
	.st8{fill:none;stroke:#343944;stroke-width:5;stroke-miterlimit:10;}
	.st9{fill:#E65847;stroke:#343944;stroke-width:3;stroke-miterlimit:10;}
	.st10{fill:#A36058;}
	.st11{fill:#E65847;}
	.st12{fill:#545A6B;}
	.st13{fill:#343944;}
	.st14{fill:#A7842E;}
	.st15{fill:none;stroke:#343944;stroke-width:2.8245;stroke-linecap:round;stroke-linejoin:round;stroke-miterlimit:10;}
	.st16{fill:#FDC536;}
	.st17{fill:#99372A;}
	.st18{fill:none;stroke:#343944;stroke-width:4.7321;stroke-linecap:round;stroke-linejoin:round;stroke-miterlimit:10;}
	.st19{fill:none;stroke:#343944;stroke-width:3.3414;stroke-linecap:round;stroke-linejoin:round;stroke-miterlimit:10;}
	.st20{fill:#EBEBEB;}
	.st21{fill:#7BD0E4;}
	.st22{fill:#FEFFFF;}
	.st23{fill:none;stroke:#343944;stroke-width:2;stroke-linecap:round;stroke-linejoin:round;stroke-miterlimit:10;}
	.st24{fill:none;stroke:#343944;stroke-width:2;stroke-miterlimit:10;}
	.st25{fill:#0C0E16;}
	.st26{fill:none;stroke:#343944;stroke-linecap:round;stroke-linejoin:round;stroke-miterlimit:10;}
	.st27{fill:#FDC536;stroke:#343944;stroke-width:3;stroke-miterlimit:10;}
	.st28{fill:#FDE7AE;}
	.st29{fill:#E65847;stroke:#343944;stroke-width:2;stroke-miterlimit:10;}
	.st30{fill:#FFFFFF;stroke:#343944;stroke-width:2;stroke-miterlimit:10;}
</style>
<rect class="st0" width="800" height="402.77"/>
<rect y="314.75" class="st1" width="800" height="85.25"/>
<polygon class="st1" points="800,400 180.97,400 180.97,314.75 800,0 "/>
<g class="st2">
	<defs>
		<rect id="SVGID_1_" x="142.51" y="86.32" width="561.34" height="313.68"/>
	</defs>
	<clipPath id="SVGID_2_" class="st3">
		<use xlink:href="#SVGID_1_"  style="overflow:visible;"/>
	</clipPath>
	<path class="st4" d="M553.5,35.62c0,0,86.38,81.7,86.38,230.01c0,188.08-86.38,230.01-86.38,230.01"/>
	<path class="st4" d="M335.49,66.81c0,0,86.38,81.7,86.38,230.01c0,188.08-86.38,230.01-86.38,230.01"/>
	<path class="st4" d="M99.32,66.81c0,0,86.38,81.7,86.38,230.01c0,188.08-86.38,230.01-86.38,230.01"/>
</g>
<g>
	<polygon class="st5" points="513.67,38.99 210.53,167.93 135.21,167.93 135.21,265.64 210.53,265.64 513.67,394.58 	"/>
	<ellipse class="st6" cx="513.67" cy="216.78" rx="38.52" ry="177.79"/>
	<path class="st7" d="M412.02,361.59c-8.46-36.92-13.74-89.21-13.74-147.18c0-57.2,5.14-108.86,13.4-145.69"/>
	<path class="st7" d="M321.61,345.97c-7.42-32.41-12.06-78.3-12.06-129.19c0-50.21,4.51-95.55,11.76-127.88"/>
	<path class="st7" d="M224.72,345.97c-7.42-32.41-12.06-78.3-12.06-129.19c0-50.21,4.51-95.55,11.76-127.88"/>
	<ellipse class="st5" cx="135.21" cy="216.97" rx="13.57" ry="48.67"/>
</g>
<g>
	<path class="st8" d="M321.58,367.61c-8.8,7.15-23.76,11.85-40.75,11.85c-27.07,0-49.02-11.95-49.02-26.7
		c0-3.32,1.12-6.51,3.15-9.44"/>
	<path class="st9" d="M180.28,294.07l-14.54,32.23c-1.03,2.28-0.01,4.97,2.27,6l52.33,23.61c0.67,0.3,1.39,0.44,2.12,0.39
		l38.21-2.16c3.66-0.21,5.58-4.45,3.31-7.33l-23.67-30.07c-0.45-0.57-1.03-1.03-1.7-1.33l-52.33-23.61
		C183.99,290.77,181.31,291.78,180.28,294.07z M233.85,337.63c1.34-2.96,4.82-4.28,7.79-2.95c2.96,1.34,4.28,4.82,2.95,7.79
		s-4.82,4.28-7.79,2.95C233.83,344.08,232.51,340.59,233.85,337.63z"/>
	<path class="st8" d="M234.98,343.32c7-10.09,24.89-17.26,45.86-17.26c27.07,0,49.02,11.95,49.02,26.7c0,5.49-3.05,10.6-8.27,14.85"
		/>
</g>
<rect y="259.63" class="st5" width="800" height="11.5"/>
<g>
	<g>
		<g>
			<path class="st10" d="M625.85,152.91c-3.01,7.6-8.3,14.97-14.7,20.53c-4.26,3.68-8.71,6.25-14.01,8.25
				c-6.42,9.36,18.26-2.36,22.92-6.17c6.2-5.08,13.1-12.72,14.99-16.57C640.23,148.39,627.33,147.95,625.85,152.91z"/>
			<path class="st10" d="M589.99,183.32c0,0.47,0.16,1.35,0.48,1.7c0.1,0.11,0.22,0.21,0.35,0.26c0.18,0.07,0.38,0.08,0.56,0.01
				c0.22-0.08,0.75-0.5,0.93-0.6c0.89-0.49,1-0.71,1.57-0.63c0.51,0.22,0.56,0.44,0.51,1.14l3.2,0.14c0.65,0.03,1.3-0.09,1.9-0.35
				l-1.15-3.78c-0.8-0.3-1.59-0.65-2.43-0.81c-1.15-0.22-2.35-0.16-3.48,0.18c-0.91,0.28-1.66,0.79-2.15,1.63
				C590.09,182.54,589.99,182.93,589.99,183.32z"/>
			<path class="st10" d="M594.55,184.86c-0.34,0.08-0.66,0.18-0.92,0.31l-0.91,0.45c-0.23,0.11-0.35,0.27-0.31,0.41l0,0
				c0.06,0.22,0.48,0.38,0.99,0.36l1.34-0.04c0.73-0.02,1.44-0.18,1.98-0.43l1.92-0.91l-1.54-0.79L594.55,184.86z"/>
			<path class="st11" d="M625.85,152.91c-2.24,5.65-6.08,10.83-10.35,15.57c-1.48,1.64,6.69,7.78,7.05,7.47
				c5.9-5.04,10.72-13.38,12.5-17.01C640.23,148.39,627.33,147.95,625.85,152.91z"/>
		</g>
		<g>
			<path class="st10" d="M615.48,245.98c-0.14,3.84-0.19,7.68-0.21,11.51c4.47,6.3,5.48-2.69,7.21-9.65
				C625.27,237.63,615.85,235.53,615.48,245.98z"/>
			<path class="st12" d="M637.31,185.15c-4.72,0.34-16.14,25.39-17.92,31.65c-1.52,5.35-3.81,21.96-4.04,33.51
				c-0.02,1.17,5.99,2.43,6.26,1.23c0.28-1.23,0.55-2.5,0.85-3.7c2.8-10.21,3.68-17.9,7.6-26.94c0.24-0.56,16.1-22.05,16.57-27.17
				C647.29,186.66,639,185.68,637.31,185.15z"/>
			<path class="st10" d="M609.65,256.62c13.31,5.28,11.79-3.92,7.54-4.34C615.22,252.58,604.73,252.97,609.65,256.62z"/>
			<path class="st13" d="M614.24,251.82c0.65-0.29,1.06,0.09,2.43,1.89c1.48,1.94,4.55,0.72,4.37,1.38
				c-0.12,0.46-1.24,5.07-1.49,5.01l-13.27-3.66c-0.25-0.07-0.36-0.49-0.23-0.95l0,0c0.3-1.12,0.98-2,1.66-2.15L614.24,251.82z"/>
		</g>
		<g>
			<path class="st10" d="M676.96,236.96c3.17,2.16,6.39,4.26,9.62,6.33c7.71-0.41,0.66-6.07-4.3-11.25
				C675.14,224.23,668.33,231.07,676.96,236.96z"/>
			<path class="st13" d="M637.21,186c-2.24,4.17,12.84,27.21,17.18,32.06c3.71,4.14,16.52,14.96,26.17,21.32
				c0.98,0.64,5.26-3.76,4.39-4.64c-0.89-0.9-1.82-1.8-2.67-2.7c-7.14-7.82-13.17-12.68-18.71-20.82
				c-0.34-0.5-10.03-25.39-14.11-28.53C643.82,178.38,638.57,184.86,637.21,186z"/>
			<path class="st10" d="M686.45,247.36c7.8-12-1.51-12.33-2.76-8.25C683.59,241.1,681.9,251.46,686.45,247.36z"/>
			<path class="st13" d="M682.65,241.91c-0.16-0.69,0.3-1.02,2.33-2.01c2.19-1.07,1.6-4.32,2.21-4.01c0.42,0.21,4.73,2.21,4.61,2.45
				l-6.21,12.28c-0.12,0.23-0.55,0.25-0.97,0.04l0,0c-1.04-0.52-1.77-1.35-1.79-2.05L682.65,241.91z"/>
		</g>
		<path class="st11" d="M645.88,156.24c0.69,4.05-0.19,9.59,1.45,16.51c1.45,5.47,7.2,14.95,7.2,14.95c4,5.7-19.07,8.6-23.06,2.9
			c-0.3-0.43,0.47-2.81-1.28-8.92c-3.12-10.48-6.99-11.11-7.7-15.7c-0.57-3.72,1.43-7.93,2.27-10.35c1.74-5.02,2.53-6.9,7.91-7.62
			C641.89,146.77,645.19,152.2,645.88,156.24z"/>
		<path class="st10" d="M634.36,153.04L634.36,153.04c2.65-0.28,4.37-2.92,3.56-5.45l-1.44-4.5c-0.21-0.65-0.84-1.06-1.52-0.99
			l-4.04,0.42c-0.73,0.08-1.29,0.69-1.29,1.43l0,4.83C629.64,151.33,631.84,153.31,634.36,153.04z"/>
		<path class="st10" d="M622.13,137.74c0.22,5.8,1.33,10.37,6.38,10.18c5.05-0.19,12.13-5.06,11.91-10.86
			c-0.22-5.8-5.94-10.3-10.99-10.11C624.37,127.13,621.91,131.93,622.13,137.74z"/>
		<g>
			<path class="st10" d="M641.74,161.68c6.4,1.38,16.36,2.48,19.69,5.95c0.1,5.39-3.69,10.08-5.13,15.32
				c1.18,4.16,4.34,0.37,5.54-1.78c16.53-21.24-1.15-24.14-18.15-30.4C635.85,149.56,634.71,160.46,641.74,161.68z"/>
			<path class="st11" d="M641.45,161.62c5.3,1.14,12.55,3.38,16.94,5.64c0.91,0.47,7.47-7.91,6.39-8.65
				c-4.88-3.35-13.41-6.16-21.08-7.84C635.94,149.07,634.42,160.4,641.45,161.62z"/>
			<g>
				<polygon class="st14" points="660.2,215.34 682.94,205.08 670.9,178.38 649.49,188.04 				"/>
				<path class="st15" d="M664.83,185.46l-1.84-4.09c-0.98-2.18-3.55-3.15-5.73-2.17l0,0c-2.18,0.98-3.15,3.55-2.17,5.73l1.84,4.09"
					/>
				
					<rect x="655.87" y="181.61" transform="matrix(-0.9115 0.4112 -0.4112 -0.9115 1355.4719 100.9063)" class="st16" width="22.02" height="29.29"/>
				<path class="st15" d="M666.43,184.74l-1.84-4.09c-0.98-2.18-3.55-3.15-5.73-2.17l0,0c-2.18,0.98-3.15,3.55-2.17,5.73l1.84,4.09"
					/>
			</g>
			<path class="st10" d="M658.15,179.52l-5.82,2.94c-0.42,0.21-0.72,0.61-0.8,1.07l-0.81,4.49c-0.12,0.68,0.23,1.36,0.87,1.64l0,0
				c0.66,0.29,1.44,0.07,1.85-0.53l2.74-4.03l1.3-0.06c1.33-0.07,2.53-0.85,3.11-2.05l0,0L658.15,179.52z"/>
		</g>
		<path class="st13" d="M623.53,130.7c0,0,3.32-0.29,5.37,3.43c1.2,2.17,3.56,3.26,4.35,5.59c1.2,3.53,3.24,6.73,7.23,7.4
			c1.79,0.3,3.64,0.01,5.43,0.3c3.14,0.5,5.89,2.93,8.76,4.18c4.29,1.88,8.96,2.72,13.56,1.56c2.05-0.51,4.03-1.4,5.6-2.82
			s2.67-3.4,2.78-5.51c0.1-2.11-0.9-4.3-2.71-5.38c-3.51-2.1-8.12,0.25-11.56-2.1c-2.11-1.44-2.81-3.86-4.66-5.5
			c-1.34-1.18-3.22-1.53-5.01-1.56c-1.79-0.03-3.58,0.19-5.35-0.05c-3.17-0.44-4.64-3.11-7.29-4.58c-3.39-1.89-7.91-1.62-11.55-0.62
			c-1.4,0.39-2.87,0.99-3.88,2.09C623.88,127.91,622.89,130.76,623.53,130.7z"/>
		<path class="st10" d="M630.59,138.98c0.05,1.41,0.32,2.52,1.55,2.47c1.23-0.05,2.95-1.23,2.89-2.64c-0.05-1.41-1.44-2.5-2.67-2.46
			C631.14,136.41,630.54,137.57,630.59,138.98z"/>
	</g>
	<g>
		<g class="st2">
			<g class="st3">
				<g>
					<polygon class="st17" points="534.46,234.52 569.84,234.52 576.07,192.94 542.44,192.94 					"/>
				</g>
				<g>
					<path class="st13" d="M563.16,199.28c0.35,0,0.65-0.25,0.7-0.61l0.94-6.37c0.27-1.85-0.21-3.59-1.35-4.91
						c-1.14-1.32-2.79-2.04-4.66-2.04c-3.76,0-7.26,3.03-7.8,6.75l-0.92,6.37c-0.06,0.39,0.21,0.75,0.6,0.8
						c0.39,0.06,0.75-0.21,0.8-0.6l0.92-6.37c0.44-3.05,3.31-5.54,6.39-5.54c1.45,0,2.72,0.55,3.59,1.55c0.87,1,1.23,2.34,1.01,3.78
						l-0.94,6.37c-0.06,0.39,0.21,0.75,0.6,0.81C563.09,199.27,563.13,199.28,563.16,199.28z"/>
				</g>
				<g>
					<polygon class="st11" points="538.62,234.52 569.84,234.52 576.07,192.94 544.54,192.94 					"/>
				</g>
				<g>
					<path class="st13" d="M565.68,199.28c0.35,0,0.65-0.25,0.7-0.61l0.94-6.37c0.27-1.85-0.2-3.59-1.34-4.91
						c-1.14-1.32-2.79-2.04-4.66-2.04c-3.76,0-7.26,3.03-7.8,6.75l-0.92,6.37c-0.06,0.39,0.21,0.75,0.6,0.8
						c0.39,0.06,0.75-0.21,0.8-0.6l0.92-6.37c0.44-3.05,3.31-5.54,6.39-5.54c1.45,0,2.72,0.55,3.59,1.55c0.86,1,1.22,2.34,1.01,3.78
						l-0.94,6.37c-0.06,0.39,0.21,0.75,0.6,0.81C565.61,199.27,565.64,199.28,565.68,199.28z"/>
				</g>
			</g>
			<g class="st3">
				<g>
					<polygon class="st14" points="548.43,234.52 572.99,234.52 577.11,207.21 554.48,207.21 					"/>
				</g>
				<g>
					<path class="st13" d="M569.22,211.55c0.23,0,0.42-0.16,0.46-0.39l0.61-4.12c0.18-1.2-0.13-2.34-0.87-3.19
						c-0.73-0.85-1.8-1.32-3-1.32c-2.43,0-4.7,1.96-5.05,4.38l-0.61,4.12c-0.04,0.25,0.14,0.49,0.39,0.53
						c0.25,0.03,0.49-0.14,0.53-0.39l0.61-4.12c0.29-1.98,2.15-3.59,4.13-3.59c0.93,0,1.75,0.35,2.3,1
						c0.56,0.65,0.79,1.52,0.65,2.45l-0.61,4.12c-0.04,0.25,0.14,0.49,0.39,0.53C569.17,211.54,569.2,211.55,569.22,211.55z"/>
				</g>
				<g>
					<polygon class="st16" points="552.59,234.52 575.07,234.52 579.2,207.21 556.57,207.21 					"/>
				</g>
				<g>
					<path class="st13" d="M571.31,211.55c0.23,0,0.42-0.16,0.46-0.39l0.62-4.12c0.18-1.2-0.13-2.34-0.87-3.19
						c-0.73-0.85-1.8-1.32-3-1.32c-2.43,0-4.7,1.96-5.05,4.38l-0.61,4.12c-0.04,0.25,0.14,0.49,0.39,0.53
						c0.25,0.03,0.49-0.14,0.53-0.39l0.61-4.12c0.29-1.98,2.15-3.59,4.14-3.59c0.93,0,1.75,0.35,2.3,1
						c0.56,0.65,0.79,1.52,0.65,2.45l-0.62,4.12c-0.04,0.25,0.14,0.49,0.39,0.53C571.26,211.54,571.29,211.55,571.31,211.55z"/>
				</g>
			</g>
			<g class="st3">
				<g>
					<polygon class="st14" points="526.25,234.52 543.55,234.52 546.32,215.29 530.41,215.29 					"/>
				</g>
				<g>
					<path class="st13" d="M540.79,218.48c0.23,0,0.42-0.17,0.46-0.4l0.41-2.91c0.13-0.89-0.11-1.72-0.66-2.36
						c-0.55-0.63-1.33-0.97-2.22-0.97c-1.77,0-3.42,1.44-3.67,3.2l-0.41,2.91c-0.04,0.25,0.14,0.49,0.39,0.52
						c0.25,0.04,0.49-0.14,0.52-0.39l0.41-2.91c0.19-1.33,1.42-2.41,2.75-2.41c0.61,0,1.15,0.23,1.52,0.66
						c0.37,0.43,0.53,1,0.44,1.62l-0.41,2.91c-0.04,0.25,0.14,0.49,0.39,0.52C540.74,218.47,540.77,218.48,540.79,218.48z"/>
				</g>
				<g>
					<polygon class="st16" points="529.18,234.52 545.02,234.52 547.79,215.29 531.88,215.29 					"/>
				</g>
				<g>
					<path class="st13" d="M542.26,218.48c0.23,0,0.42-0.17,0.46-0.4l0.41-2.91c0.13-0.89-0.11-1.72-0.66-2.36
						c-0.55-0.63-1.33-0.98-2.22-0.98c-1.77,0-3.42,1.44-3.67,3.2l-0.41,2.91c-0.04,0.25,0.14,0.49,0.39,0.52
						c0.25,0.04,0.49-0.14,0.52-0.39l0.41-2.91c0.19-1.33,1.42-2.41,2.75-2.41c0.61,0,1.15,0.23,1.52,0.66
						c0.37,0.43,0.53,1,0.44,1.62l-0.41,2.91c-0.04,0.25,0.14,0.49,0.39,0.52C542.21,218.47,542.24,218.48,542.26,218.48z"/>
				</g>
			</g>
		</g>
		<g>
			<g>
				<path class="st18" d="M593.25,184.52h-1.21c-2.82,0-5.25,2.06-5.82,4.94l-10.89,54.65c-0.57,2.88-3,4.94-5.82,4.94h-44.2"/>
				<path class="st18" d="M584.97,193.29l-71.46,0l7.47,36.64c0.57,2.88,3,4.94,5.82,4.94l49.89,0"/>
				<path class="st13" d="M557.58,255.62c0,2.47,2,4.47,4.47,4.47s4.47-2,4.47-4.47c0-2.47-2-4.47-4.47-4.47
					S557.58,253.16,557.58,255.62z"/>
				<path class="st13" d="M590.91,184.52c0,1.16,0.94,2.1,2.1,2.1s2.1-0.94,2.1-2.1c0-1.16-0.94-2.1-2.1-2.1
					S590.91,183.36,590.91,184.52z"/>
				<path class="st13" d="M531.11,255.62c0,2.47,2,4.47,4.47,4.47c2.47,0,4.47-2,4.47-4.47c0-2.47-2-4.47-4.47-4.47
					C533.11,251.15,531.11,253.16,531.11,255.62z"/>
				<line class="st19" x1="582.34" y1="207.01" x2="517.05" y2="207.01"/>
				<line class="st19" x1="579.51" y1="221.14" x2="519.88" y2="221.14"/>
				<line class="st19" x1="550.48" y1="193.29" x2="550.48" y2="234.87"/>
				<line class="st19" x1="531.26" y1="193.29" x2="536.17" y2="234.87"/>
				<line class="st19" x1="568.37" y1="193.29" x2="563.46" y2="234.87"/>
			</g>
		</g>
	</g>
</g>
<g>
	<path class="st20" d="M440.27,354.62H288.56c-1.99,0-3.6-1.61-3.6-3.6V238.93c0-1.99,1.61-3.6,3.6-3.6h151.71
		c1.99,0,3.6,1.61,3.6,3.6v112.09C443.86,353.01,442.25,354.62,440.27,354.62z"/>
	<rect x="291.95" y="275.54" class="st21" width="144.04" height="67.37"/>
	<circle class="st0" cx="301.68" cy="252.03" r="9.73"/>
	<path class="st22" d="M365.18,252.05h-46.35c-1.79,0-3.25-1.46-3.25-3.25v0c0-1.79,1.46-3.25,3.25-3.25h46.35
		c1.79,0,3.25,1.46,3.25,3.25v0C368.42,250.59,366.96,252.05,365.18,252.05z"/>
	<path class="st22" d="M402.07,258.43h-85.29c-0.68,0-1.24-0.56-1.24-1.24l0,0c0-0.68,0.56-1.24,1.24-1.24h85.29
		c0.68,0,1.24,0.56,1.24,1.24l0,0C403.31,257.87,402.75,258.43,402.07,258.43z"/>
	<g>
		<path class="st16" d="M380.06,282.16c2.52,9.72-5.77,25.46-8.19,36.32c-0.32,1.46-12.44,3.23-12.44,3.23
			c-8.05-8.94-22.28-18.05-24.8-27.77c-3.84-14.83,3.88-26.91,16.42-30.16C363.6,260.53,376.22,267.33,380.06,282.16z"/>
		
			<ellipse transform="matrix(0.968 -0.251 0.251 0.968 -68.5957 101.9921)" class="st17" cx="365.62" cy="319.96" rx="6.46" ry="1.47"/>
		<path class="st11" d="M359.43,321.71c0,0-11.31-15.9-15.47-31.96c-4.17-16.07-2.25-21.21-2.25-21.21s-12.71,9.28-6.16,27.94
			c1.93,5.49,8.88,11.11,14.66,16.26C355.31,317.28,359.43,321.71,359.43,321.71z"/>
		<path class="st11" d="M371.9,318.47c0,0,2.16-19.39-2-35.46s-8.34-19.63-8.34-19.63s15.62,1.94,18.96,21.43
			c0.98,5.74-2.36,14.03-4.91,21.33C373.35,312.6,371.9,318.47,371.9,318.47z"/>
		<path class="st11" d="M351.05,263.78c0,0-6.22,1.61,2.32,27.78c4.45,13.64,11.5,27.08,11.5,27.08s-0.41-18.17-2.36-29.45
			C358.13,263.69,351.05,263.78,351.05,263.78z"/>
		<path class="st13" d="M371.11,336.22l-3.15,0.82c-1.09,0.28-2.2-0.37-2.48-1.46l-1.72-6.64l7.08-1.84l1.72,6.64
			C372.85,334.83,372.2,335.94,371.11,336.22z"/>
		<line class="st23" x1="359.43" y1="321.71" x2="364.59" y2="330.32"/>
		<line class="st23" x1="370.67" y1="328.61" x2="371.87" y2="318.48"/>
		<path class="st24" d="M380.06,282.16c2.52,9.72-5.77,25.46-8.19,36.32c-0.32,1.46-12.44,3.23-12.44,3.23
			c-8.05-8.94-22.28-18.05-24.8-27.77c-3.84-14.83,3.88-26.91,16.42-30.16C363.6,260.53,376.22,267.33,380.06,282.16z"/>
	</g>
	<g>
		<path class="st13" d="M427.41,303.31c-1.65,7.22-12.4,14.7-17.67,20.99c-0.71,0.84-9.23-2.11-9.23-2.11
			c-2.24-8.58-8.46-19.36-6.82-26.57c2.51-11,11.66-16.29,20.97-14.16C423.97,283.57,429.92,292.3,427.41,303.31z"/>
		
			<ellipse transform="matrix(0.2224 -0.975 0.975 0.2224 -2.067131e-03 646.2841)" class="st14" cx="405.15" cy="323.14" rx="1.08" ry="4.76"/>
		<path class="st16" d="M400.51,322.19c0,0-2.01-14.23,0.71-26.16c2.72-11.92,5.72-14.64,5.72-14.64s-11.46,1.77-13.5,16.19
			c-0.6,4.25,2.04,10.28,4.08,15.6C399.32,317.89,400.51,322.19,400.51,322.19z"/>
		<path class="st16" d="M409.76,324.3c0,0,7.98-11.95,10.7-23.88c2.72-11.92,1.2-15.67,1.2-15.67s9.56,6.56,5.14,20.45
			c-1.3,4.09-6.3,8.38-10.44,12.29C412.7,320.95,409.76,324.3,409.76,324.3z"/>
		<path class="st16" d="M414.66,281.45c0,0-4.62-1.05-7.9,18.96c-1.71,10.43-1.65,21.61-1.65,21.61s5.89-12.03,8.44-20.07
			C419.32,283.79,414.66,281.45,414.66,281.45z"/>
		<path class="st13" d="M402.71,335.53l-1.29-0.29c-1.1-0.25-1.78-1.34-1.53-2.44l1.01-4.41l5.26,1.2l-1.01,4.41
			C404.9,335.09,403.81,335.78,402.71,335.53z"/>
		<line class="st23" x1="400.51" y1="322.19" x2="400.97" y2="329.57"/>
		<line class="st23" x1="405.53" y1="330.51" x2="409.74" y2="324.29"/>
		<path class="st24" d="M427.41,303.31c-1.65,7.22-12.4,14.7-17.67,20.99c-0.71,0.84-9.23-2.11-9.23-2.11
			c-2.24-8.58-8.46-19.36-6.82-26.57c2.51-11,11.66-16.29,20.97-14.16C423.97,283.57,429.92,292.3,427.41,303.31z"/>
	</g>
	<g>
		<path class="st0" d="M326.9,305.89c-1.12,4.91-8.44,10-12.02,14.28c-0.48,0.57-6.28-1.43-6.28-1.43
			c-1.52-5.84-5.76-13.17-4.64-18.08c1.71-7.49,7.93-11.08,14.27-9.64C324.56,292.46,328.61,298.4,326.9,305.89z"/>
		
			<ellipse transform="matrix(0.2224 -0.975 0.975 0.2224 -68.9671 552.3027)" class="st25" cx="311.75" cy="319.39" rx="0.74" ry="3.24"/>
		<path class="st13" d="M308.59,318.74c0,0-1.37-9.68,0.48-17.8c1.85-8.11,3.89-9.96,3.89-9.96s-7.8,1.2-9.19,11.02
			c-0.41,2.89,1.39,6.99,2.78,10.62C307.78,315.81,308.59,318.74,308.59,318.74z"/>
		<path class="st13" d="M314.89,320.17c0,0,5.43-8.13,7.28-16.25c1.85-8.11,0.82-10.66,0.82-10.66s6.51,4.46,3.5,13.91
			c-0.89,2.78-4.29,5.7-7.11,8.36C316.89,317.89,314.89,320.17,314.89,320.17z"/>
		<path class="st13" d="M318.22,291.02c0,0-3.14-0.72-5.37,12.9c-1.16,7.1-1.12,14.71-1.12,14.71s4.01-8.19,5.74-13.65
			C321.39,292.61,318.22,291.02,318.22,291.02z"/>
		<path class="st13" d="M309.65,327.71L309.65,327.71c-0.99-0.23-1.61-1.21-1.38-2.2l0.58-2.56l3.58,0.82l-0.58,2.56
			C311.62,327.32,310.64,327.94,309.65,327.71z"/>
		<line class="st26" x1="308.59" y1="318.74" x2="308.91" y2="323.76"/>
		<line class="st26" x1="312.01" y1="324.4" x2="314.88" y2="320.17"/>
		<path class="st24" d="M326.9,305.89c-1.12,4.91-8.44,10-12.02,14.28c-0.48,0.57-6.28-1.43-6.28-1.43
			c-1.52-5.84-5.76-13.17-4.64-18.08c1.71-7.49,7.93-11.08,14.27-9.64C324.56,292.46,328.61,298.4,326.9,305.89z"/>
	</g>
</g>
<g>
	<path class="st8" d="M287.57,89.25c8.8,7.15,23.76,11.85,40.75,11.85c27.07,0,49.02-11.95,49.02-26.7c0-3.32-1.12-6.51-3.15-9.44"
		/>
	<path class="st27" d="M422.87,13.44l-52.33,23.61c-0.67,0.3-1.25,0.76-1.7,1.33l-23.67,30.07c-2.27,2.88-0.35,7.13,3.31,7.33
		l38.21,2.16c0.73,0.04,1.46-0.09,2.12-0.39l52.33-23.61c2.28-1.03,3.3-3.72,2.27-6l-14.54-32.23
		C427.84,13.43,425.16,12.41,422.87,13.44z M372.35,67.06c-2.96,1.34-6.45,0.02-7.79-2.95c-1.34-2.96-0.02-6.45,2.95-7.79
		c2.96-1.34,6.45-0.02,7.79,2.95C376.64,62.24,375.32,65.73,372.35,67.06z"/>
	<path class="st8" d="M374.18,64.97c-7-10.09-24.89-17.26-45.86-17.26c-27.07,0-49.02,11.95-49.02,26.7c0,5.49,3.05,10.6,8.27,14.85
		"/>
</g>
<g>
	<path class="st20" d="M337.13,181.52H230.31c-1.99,0-3.6-1.61-3.6-3.6V65.83c0-1.99,1.61-3.6,3.6-3.6h106.82
		c1.99,0,3.6,1.61,3.6,3.6v112.09C340.73,179.91,339.12,181.52,337.13,181.52z"/>
	<rect x="233.71" y="102.44" class="st28" width="99.18" height="67.37"/>
	<circle class="st12" cx="243.44" cy="78.93" r="9.73"/>
	<path class="st22" d="M306.93,78.95h-46.35c-1.79,0-3.25-1.46-3.25-3.25v0c0-1.79,1.46-3.25,3.25-3.25h46.35
		c1.79,0,3.25,1.46,3.25,3.25v0C310.18,77.48,308.72,78.95,306.93,78.95z"/>
	<path class="st22" d="M322.39,85.32h-63.84c-0.68,0-1.24-0.56-1.24-1.24l0,0c0-0.68,0.56-1.24,1.24-1.24h63.84
		c0.68,0,1.24,0.56,1.24,1.24l0,0C323.62,84.77,323.07,85.32,322.39,85.32z"/>
	<path class="st29" d="M271.95,152.86h-2.48l-2.45-0.14c-4.27-0.09-8.51-0.7-12.63-1.81c-2.04-0.5-3.95-1.46-5.57-2.81
		c-1.1-0.74-1.53-2.14-1.03-3.37c0.11-0.41,0.19-0.82,0.25-1.23c0-0.19,0.08-0.47,0.2-0.55c0.56-0.31,0.58-0.89,0.73-1.39
		c0.28-2.04,2.15-3.48,4.19-3.24c1.4,0,2.81,0,4.19-0.17c1.96-0.14,3.91-0.34,5.88-0.58c0.7,0,1.56-0.14,1.56-1.2
		c0-0.27,0.39-0.58,0.67-0.75c0.46-0.29,0.95-0.54,1.47-0.72c0.58-0.23,1.25-0.28,1.48-1.04c0-0.17,0.33-0.28,0.53-0.37
		c0.47-0.23,0.95-0.44,1.4-0.69c0.54-0.43,1.32-0.35,1.75,0.19c0.05,0.06,0.1,0.13,0.13,0.2c0.8-0.41,1.87-0.33,2.07-1.56
		c0-0.16,0.31-0.3,0.51-0.41c0.53-0.27,1.08-0.5,1.56-0.78c0.42-0.3,0.98-0.3,1.4,0c0.16,0.08,0.35,0.08,0.51,0
		c0.39-0.17,0.75-0.39,1.11-0.58c-0.3-1.56,2.07-3.12,3.88-2.51c0.2-0.56,0.39-1.15,0.61-1.73c0.18-0.64,0.45-1.25,0.8-1.81
		c1.81-2.26,3.32-4.75,4.51-7.39c0.48-1.08,1.04-2.13,1.68-3.12c0.94-1.42,1.56-1.56,2.96-0.59l0.31,0.22
		c1.39,1,2.76,2.06,4.19,3.01c1.36,0.85,2.15,2.37,2.07,3.98c0,0.8,0.2,0.89,1,0.86c0.71-0.02,1.42,0.06,2.1,0.23
		c1.71,0.41,3.41,0.92,5.13,1.28c0.59,0.11,1.19,0.05,1.75-0.17c0.9-0.42,1.36-0.36,1.65,0.61c0.19,0.72,0.33,1.46,0.41,2.2
		c1.25,6.24,1.84,12.59,1.76,18.96c0.03,0.53,0.11,1.05,0.27,1.56v5.99c-0.51,0.62-1.24,1.02-2.04,1.09
		c-0.76,0.09-1.53,0.13-2.29,0.14h-36.73C272.93,152.77,272.43,152.83,271.95,152.86z"/>
	<g id="TKgHA4_1_">
		<g>
			<path class="st30" d="M299.43,138.12c0.21,0.52,0.35,1.06,0.39,1.62c0.06,0.76-0.09,1.47-0.59,2.06
				c-0.34,0.41-0.79,0.66-1.29,0.81c-0.38,0.12-0.77,0.17-1.17,0.16c-0.4-0.01-0.79-0.06-1.17-0.17c-0.98-0.27-1.97-0.54-2.96-0.8
				c-0.82-0.22-1.63-0.43-2.45-0.65c-1.06-0.29-2.11-0.58-3.17-0.87c-1.32-0.36-2.64-0.71-3.96-1.07c-0.96-0.26-1.91-0.51-2.87-0.77
				c-1.03-0.28-2.06-0.56-3.09-0.84c-0.63-0.17-1.26-0.34-1.9-0.51c-0.25-0.07-0.49-0.14-0.74-0.2c-0.06-0.01-0.13,0.01-0.19,0.02
				c0.04,0.05,0.08,0.12,0.13,0.14c0.34,0.16,0.68,0.3,1.03,0.45c0.85,0.37,1.7,0.74,2.55,1.1c1.1,0.47,2.19,0.95,3.29,1.42
				c1.11,0.48,2.21,0.96,3.32,1.44c1.05,0.46,2.11,0.92,3.16,1.37c0.72,0.31,1.45,0.62,2.18,0.94c0.98,0.42,1.95,0.84,2.93,1.26
				c0.73,0.32,1.47,0.64,2.21,0.94c0.86,0.36,1.73,0.72,2.64,0.94c0.4,0.09,0.8,0.14,1.21,0.19c0.56,0.06,1.11-0.01,1.64-0.19
				c0.55-0.18,1.04-0.48,1.46-0.88c0.45-0.43,0.66-0.98,0.7-1.6c0.03-0.52-0.06-1.02-0.21-1.52c-0.25-0.87-0.66-1.67-1.13-2.44
				c-0.39-0.64-0.8-1.26-1.26-1.85c-0.33-0.42-0.66-0.84-1-1.26c-0.01-0.01-0.02-0.02-0.03-0.02
				C299.21,137.61,299.33,137.86,299.43,138.12z"/>
			<path class="st30" d="M299.1,137.36c0.11,0.25,0.22,0.5,0.32,0.76c0.21,0.52,0.35,1.06,0.39,1.62c0.06,0.76-0.09,1.47-0.59,2.06
				c-0.34,0.41-0.79,0.66-1.29,0.81c-0.38,0.12-0.77,0.17-1.17,0.16c-0.4-0.01-0.79-0.06-1.17-0.17c-0.98-0.27-1.97-0.54-2.96-0.8
				c-0.82-0.22-1.63-0.43-2.45-0.65c-1.06-0.29-2.11-0.58-3.17-0.87c-1.32-0.36-2.64-0.71-3.96-1.07c-0.96-0.26-1.91-0.51-2.87-0.77
				c-1.03-0.28-2.06-0.56-3.09-0.84c-0.63-0.17-1.26-0.34-1.9-0.51c-0.25-0.07-0.49-0.14-0.74-0.2c-0.06-0.01-0.13,0.01-0.19,0.02
				c0.04,0.05,0.08,0.12,0.13,0.14c0.34,0.16,0.68,0.3,1.03,0.45c0.85,0.37,1.7,0.74,2.55,1.1c1.1,0.47,2.19,0.95,3.29,1.42
				c1.11,0.48,2.21,0.96,3.32,1.44c1.05,0.46,2.11,0.92,3.16,1.37c0.72,0.31,1.45,0.62,2.18,0.94c0.98,0.42,1.95,0.84,2.93,1.26
				c0.73,0.32,1.47,0.64,2.21,0.94c0.86,0.36,1.73,0.72,2.64,0.94c0.4,0.09,0.8,0.14,1.21,0.19c0.56,0.06,1.11-0.01,1.64-0.19
				c0.55-0.18,1.04-0.48,1.46-0.88c0.45-0.43,0.66-0.98,0.7-1.6c0.03-0.52-0.06-1.02-0.21-1.52c-0.25-0.87-0.66-1.67-1.13-2.44
				c-0.39-0.64-0.8-1.26-1.26-1.85c-0.33-0.42-0.66-0.84-1-1.26C299.12,137.37,299.11,137.36,299.1,137.36z"/>
		</g>
	</g>
</g>
</svg>
